<svg width="19" height="20" viewBox="0 0 19 20" fill="none" xmlns="http://www.w3.org/2000/svg">
<path fill-rule="evenodd" clip-rule="evenodd" d="M11.6335 0.567926L16.6928 3.41506C18.075 4.19288 18.9296 5.6507 18.9296 7.2308V12.7692C18.9296 14.3493 18.075 15.8071 16.6928 16.5849L11.6335 19.4321C10.2879 20.1893 8.64177 20.1893 7.29614 19.4321L2.2368 16.5849C0.854583 15.8071 0 14.3493 0 12.7692V7.2308C0 5.6507 0.854583 4.19288 2.2368 3.41506L7.29614 0.567926C8.64177 -0.189309 10.2879 -0.189309 11.6335 0.567926ZM12.4285 12.0386L14.6584 6.40809L16.6965 10.474L14.9646 12.5614L12.4285 12.0386ZM14.8083 16.6091L12.4254 12.9877L14.9606 13.5075L16.7869 11.4536L14.8083 16.6091Z" fill="url(#paint0_linear_3_792)"/>
<path fill-rule="evenodd" clip-rule="evenodd" d="M11.7039 0.567926L16.7632 3.41506C18.1454 4.19288 19 5.6507 19 7.2308V12.7692C19 14.3493 18.1454 15.8071 16.7632 16.5849L11.7039 19.4321C10.3582 20.1893 8.71214 20.1893 7.36651 19.4321L2.30717 16.5849C0.924954 15.8071 0.0703704 14.3493 0.0703704 12.7692V7.2308C0.0703704 5.6507 0.924954 4.19288 2.30717 3.41506L7.36651 0.567926C8.71214 -0.189309 10.3582 -0.189309 11.7039 0.567926ZM12.4988 12.0386L14.7287 6.40809L16.7669 10.474L15.035 12.5614L12.4988 12.0386ZM14.8786 16.6091L12.4958 12.9877L15.031 13.5075L16.8572 11.4536L14.8786 16.6091Z" fill="url(#paint1_linear_3_792)"/>
<defs>
<linearGradient id="paint0_linear_3_792" x1="7.91667" y1="18.9743" x2="15.9543" y2="3.58343" gradientUnits="userSpaceOnUse">
<stop stop-color="#80A6F7"/>
<stop offset="0.489061" stop-color="#A3D1E2"/>
<stop offset="0.69236" stop-color="#A4D1FB"/>
<stop offset="1" stop-color="#CBB1FB"/>
</linearGradient>
<linearGradient id="paint1_linear_3_792" x1="7.91667" y1="18.9743" x2="15.9543" y2="3.58343" gradientUnits="userSpaceOnUse">
<stop stop-color="#80A6F7"/>
<stop offset="0.489061" stop-color="#A3D1E2"/>
<stop offset="0.69236" stop-color="#A4D1FB"/>
<stop offset="1" stop-color="#CBB1FB"/>
</linearGradient>
</defs>
</svg>
