<svg width="19" height="20" viewBox="0 0 19 20" fill="none" xmlns="http://www.w3.org/2000/svg">
<path fill-rule="evenodd" clip-rule="evenodd" d="M11.6767 0.567926L16.7549 3.41506C18.1422 4.19289 19 5.6507 19 7.2308V12.7692C19 14.3493 18.1422 15.8071 16.7549 16.5849L11.6767 19.4321C10.3261 20.1893 8.67389 20.1893 7.32327 19.4321L2.24512 16.5849C0.85776 15.8071 0 14.3493 0 12.7692V7.2308C0 5.6507 0.85776 4.19289 2.24512 3.41506L7.32327 0.567926C8.67389 -0.189309 10.3261 -0.189309 11.6767 0.567926ZM11.2314 17.9276C11.2314 18.1224 11.3685 18.202 11.5377 18.1054L12.5272 17.5402C12.6964 17.4435 12.8336 17.2072 12.8336 17.0123V14.194C12.8336 13.9991 12.9707 13.7628 13.1399 13.6662L14.727 12.7595C15.2449 12.4637 15.7061 12.0809 16.1107 11.6112C16.5234 11.1276 16.847 10.5986 17.0817 10.0241C17.3245 9.43571 17.4458 8.84329 17.4458 8.24678V8.05406C17.4458 7.44838 17.3285 6.99231 17.0938 6.68587C16.8673 6.3748 16.5477 6.21784 16.135 6.21498C15.7304 6.19833 15.2611 6.34254 14.727 6.64762L11.9973 8.20702C11.5743 8.44865 11.2314 9.03942 11.2314 9.52655V17.9276ZM13.1399 12.0143C12.9707 12.111 12.8336 12.0314 12.8336 11.8365V9.73395C12.8336 9.5391 12.9707 9.30279 13.1399 9.20614L14.5692 8.38963C14.9495 8.17237 15.257 8.11602 15.4917 8.22057C15.7263 8.32512 15.8437 8.58388 15.8437 8.99684V9.1345C15.8437 9.54746 15.7263 9.94027 15.4917 10.3129C15.257 10.6856 14.9495 10.9805 14.5692 11.1978L13.1399 12.0143Z" fill="url(#paint0_linear_3_812)"/>
<defs>
<linearGradient id="paint0_linear_3_812" x1="6.03903" y1="40.0451" x2="20.8421" y2="13.4952" gradientUnits="userSpaceOnUse">
<stop stop-color="#640AFF"/>
<stop offset="1" stop-color="#9B63FA"/>
</linearGradient>
</defs>
</svg>
