<svg width="19" height="20" viewBox="0 0 19 20" fill="none" xmlns="http://www.w3.org/2000/svg">
<g filter="url(#filter0_i_3_852)">
<path fill-rule="evenodd" clip-rule="evenodd" d="M16.7549 3.41506L11.6767 0.567926C10.3261 -0.189309 8.67389 -0.189309 7.32327 0.567926L2.24512 3.41506C0.857761 4.19289 0 5.6507 0 7.2308V12.7692C0 14.3493 0.857761 15.8071 2.24512 16.5849L7.32327 19.4321C8.67389 20.1893 10.3261 20.1893 11.6767 19.4321L16.7549 16.5849C18.1422 15.8071 19 14.3493 19 12.7692V7.2308C19 5.6507 18.1422 4.19289 16.7549 3.41506ZM13.422 13.856L13.422 13.864C13.4219 14.796 13.6573 15.381 14.1282 15.6191C14.599 15.8572 15.2278 15.7515 16.0146 15.302C16.8193 14.8424 17.4332 14.2621 17.8564 13.5612C18.2856 12.8569 18.5003 12.0731 18.5003 11.2097L18.5004 10.752C18.5004 10.3463 18.2148 10.1805 17.8625 10.3818L16.318 11.2641C16.0321 11.4274 15.8003 11.8267 15.8003 12.156C15.8002 12.4852 16.032 12.6197 16.3179 12.4564L17.2577 11.9196C17.2922 11.8998 17.3201 11.9161 17.3201 11.9558C17.3201 12.8809 16.8849 13.592 16.0147 14.0891C15.5617 14.3479 15.213 14.3998 14.9687 14.2447C14.7243 14.0897 14.6021 13.7586 14.6022 13.2515L14.6023 11.5405C14.6249 11.3809 14.6368 11.2203 14.638 11.0585C14.6923 10.7353 14.8086 10.4132 14.9869 10.0922C15.2432 9.63056 15.5859 9.27717 16.0151 9.03201C16.4323 8.79366 16.7542 8.73999 16.9806 8.87099C17.1639 8.97698 17.273 9.1836 17.3079 9.49087C17.3281 9.66835 17.4544 9.75154 17.6198 9.65706L18.1857 9.33376C18.3595 9.23445 18.5044 8.9891 18.4921 8.79645C18.4483 8.11239 18.2336 7.67402 17.848 7.48132C17.4129 7.25706 16.8019 7.36966 16.0152 7.81912C15.2224 8.27198 14.5906 8.89673 14.1197 9.69337L14.1106 9.70883C14.1018 9.7035 14.0929 9.6983 14.0839 9.69325C13.7144 9.48635 13.2316 9.55316 12.6355 9.89365L10.6986 11.0002C10.3462 11.2014 10.0606 11.6935 10.0606 12.0993L10.0601 17.8801C10.0601 18.2555 10.3243 18.4088 10.6502 18.2226C10.9761 18.0364 11.2403 17.5813 11.2403 17.2059L11.2404 15.9889C11.2404 15.5831 11.5261 15.091 11.8784 14.8897L12.6352 14.4574C12.9227 14.2931 13.185 14.0927 13.422 13.856ZM13.4564 11.6347C13.4407 11.7671 13.4304 11.9007 13.4255 12.0354C13.386 12.2335 13.3103 12.4265 13.1986 12.6144C13.0257 12.905 12.7992 13.1303 12.5191 13.2904L11.8785 13.6563C11.5262 13.8576 11.2406 13.6918 11.2406 13.286L11.2406 12.6586C11.2407 12.2528 11.5263 11.7607 11.8786 11.5594L12.5192 11.1935C12.7994 11.0335 13.0259 11 13.1987 11.0931C13.3582 11.1791 13.4441 11.3596 13.4564 11.6347Z" fill="url(#paint0_linear_3_852)"/>
</g>
<defs>
<filter id="filter0_i_3_852" x="-5.14286" y="0" width="24.1429" height="26.6122" filterUnits="userSpaceOnUse" color-interpolation-filters="sRGB">
<feFlood flood-opacity="0" result="BackgroundImageFix"/>
<feBlend mode="normal" in="SourceGraphic" in2="BackgroundImageFix" result="shape"/>
<feColorMatrix in="SourceAlpha" type="matrix" values="0 0 0 0 0 0 0 0 0 0 0 0 0 0 0 0 0 0 127 0" result="hardAlpha"/>
<feOffset dx="-5.14286" dy="6.61225"/>
<feGaussianBlur stdDeviation="13.7755"/>
<feComposite in2="hardAlpha" operator="arithmetic" k2="-1" k3="1"/>
<feColorMatrix type="matrix" values="0 0 0 0 0.595833 0 0 0 0 0 0 0 0 0 0 0 0 0 1 0"/>
<feBlend mode="normal" in2="shape" result="effect1_innerShadow_3_852"/>
</filter>
<linearGradient id="paint0_linear_3_852" x1="20.9388" y1="2.30769" x2="26.9" y2="13.1202" gradientUnits="userSpaceOnUse">
<stop offset="0.184287" stop-color="#FF0000"/>
<stop offset="0.746425" stop-color="#FFA011"/>
</linearGradient>
</defs>
</svg>
